<svg width="137" height="138" viewBox="0 0 137 138" fill="none" xmlns="http://www.w3.org/2000/svg">
<g opacity="0.4">
<rect width="96" height="96" rx="8" transform="matrix(-0.996195 -0.0871557 -0.422618 0.906308 136.206 50.2881)" fill="url(#paint0_linear_446_447)"/>
</g>
<g opacity="0.75">
<rect width="96" height="96" rx="8" transform="matrix(-0.996195 -0.0871557 -0.422618 0.906308 136.206 29.2876)" fill="url(#paint1_linear_446_447)"/>
</g>
<rect x="-0.354703" y="0.204788" width="95.5" height="95.5" rx="7.75" transform="matrix(-0.996195 -0.0871557 -0.422618 0.906308 135.893 8.35546)" fill="url(#paint2_linear_446_447)"/>
<rect x="-0.354703" y="0.204788" width="95.5" height="95.5" rx="7.75" transform="matrix(-0.996195 -0.0871557 -0.422618 0.906308 135.893 8.35546)" stroke="url(#paint3_linear_446_447)" stroke-width="0.5"/>
<g clip-path="url(#clip0_446_447)">
<path d="M80.7284 65.7433L95.9426 33.1162L60.0796 29.9786L56.6987 37.2291L52.7139 36.8804L51.0234 40.5057L55.0082 40.8543L53.3177 44.4795L49.3329 44.1309L47.6425 47.7561L51.6273 48.1048L49.9368 51.73L45.952 51.3814L44.2615 55.0066L48.2463 55.3552L44.8654 62.6057L80.7284 65.7433ZM76.1398 57.7956L66.1778 56.924L69.5588 49.6736L79.5207 50.5451L76.1398 57.7956ZM70.1021 44.0614L62.1325 43.3642L64.6682 37.9263L72.6378 38.6236L70.1021 44.0614ZM80.3659 48.7325L70.404 47.8609L74.6302 38.7979L84.5921 39.6694L80.3659 48.7325ZM64.1854 56.7497L56.2159 56.0525L61.2873 45.1768L69.2568 45.874L64.1854 56.7497Z" fill="#FFB26F"/>
</g>
<defs>
<linearGradient id="paint0_linear_446_447" x1="-0.332031" y1="-0.130249" x2="95.668" y2="95.8698" gradientUnits="userSpaceOnUse">
<stop stop-color="#FFB26F" stop-opacity="0.25"/>
<stop offset="0.554556" stop-color="#FFB26F" stop-opacity="0.12"/>
<stop offset="1" stop-color="#FFB26F" stop-opacity="0.6"/>
</linearGradient>
<linearGradient id="paint1_linear_446_447" x1="-0.332031" y1="-0.130249" x2="95.668" y2="95.8698" gradientUnits="userSpaceOnUse">
<stop stop-color="#FFB26F" stop-opacity="0.25"/>
<stop offset="0.554556" stop-color="#FFB26F" stop-opacity="0.12"/>
<stop offset="1" stop-color="#FFB26F" stop-opacity="0.6"/>
</linearGradient>
<linearGradient id="paint2_linear_446_447" x1="-0.332031" y1="-0.130249" x2="95.668" y2="95.8698" gradientUnits="userSpaceOnUse">
<stop stop-color="#FFB26F" stop-opacity="0.25"/>
<stop offset="0.554556" stop-color="#FFB26F" stop-opacity="0.12"/>
<stop offset="1" stop-color="#FFB26F" stop-opacity="0.6"/>
</linearGradient>
<linearGradient id="paint3_linear_446_447" x1="49.7668" y1="49.5874" x2="105.637" y2="23.6888" gradientUnits="userSpaceOnUse">
<stop stop-color="#FFB26F" stop-opacity="0.4"/>
<stop offset="1" stop-color="#FFB26F"/>
</linearGradient>
<clipPath id="clip0_446_447">
<rect width="48" height="48" fill="white" transform="matrix(-0.996195 -0.0871557 -0.422618 0.906308 102.463 28.0269)"/>
</clipPath>
</defs>
</svg>
