<svg width="96" height="96" viewBox="0 0 96 96" fill="none" xmlns="http://www.w3.org/2000/svg">
<rect x="0.25" y="0.25" width="95.5" height="95.5" rx="7.75" fill="url(#paint0_linear_476_3600)"/>
<rect x="0.25" y="0.25" width="95.5" height="95.5" rx="7.75" stroke="url(#paint1_linear_476_3600)" stroke-width="0.5"/>
<path d="M65.9999 59.0768C65.9999 58.3076 65.7307 57.6537 65.1922 57.1153L59.1922 51.1153C58.6537 50.5768 57.9999 50.3076 57.2307 50.3076C56.423 50.3076 55.7307 50.6153 55.1537 51.2307C55.2114 51.2883 55.3941 51.4662 55.7018 51.7643C56.0095 52.0624 56.2162 52.2691 56.322 52.3845C56.4278 52.4999 56.572 52.6826 56.7547 52.9326C56.9374 53.1826 57.0624 53.4278 57.1297 53.6682C57.197 53.9085 57.2307 54.173 57.2307 54.4614C57.2307 55.2307 56.9614 55.8845 56.423 56.423C55.8845 56.9614 55.2307 57.2307 54.4614 57.2307C54.173 57.2307 53.9085 57.197 53.6682 57.1297C53.4278 57.0624 53.1826 56.9374 52.9326 56.7547C52.6826 56.572 52.4999 56.4278 52.3845 56.322C52.2691 56.2162 52.0624 56.0095 51.7643 55.7018C51.4662 55.3941 51.2883 55.2114 51.2307 55.1537C50.596 55.7499 50.2787 56.4518 50.2787 57.2595C50.2787 58.0287 50.548 58.6826 51.0864 59.221L57.0287 65.1922C57.548 65.7114 58.2018 65.971 58.9903 65.971C59.7595 65.971 60.4133 65.721 60.9518 65.221L65.1922 61.0095C65.7307 60.471 65.9999 59.8268 65.9999 59.0768ZM45.721 38.7403C45.721 37.971 45.4518 37.3172 44.9133 36.7787L38.971 30.8076C38.4326 30.2691 37.7787 29.9999 37.0095 29.9999C36.2595 29.9999 35.6057 30.2595 35.048 30.7787L30.8076 34.9903C30.2691 35.5287 29.9999 36.173 29.9999 36.923C29.9999 37.6922 30.2691 38.346 30.8076 38.8845L36.8076 44.8845C37.3268 45.4037 37.9807 45.6633 38.7691 45.6633C39.5768 45.6633 40.2691 45.3653 40.846 44.7691C40.7883 44.7114 40.6057 44.5335 40.298 44.2355C39.9903 43.9374 39.7835 43.7307 39.6778 43.6153C39.572 43.4999 39.4278 43.3172 39.2451 43.0672C39.0624 42.8172 38.9374 42.572 38.8701 42.3316C38.8028 42.0912 38.7691 41.8268 38.7691 41.5383C38.7691 40.7691 39.0383 40.1153 39.5768 39.5768C40.1153 39.0383 40.7691 38.7691 41.5383 38.7691C41.8268 38.7691 42.0912 38.8028 42.3316 38.8701C42.572 38.9374 42.8172 39.0624 43.0672 39.2451C43.3172 39.4278 43.4999 39.572 43.6153 39.6778C43.7307 39.7835 43.9374 39.9903 44.2355 40.298C44.5335 40.6057 44.7114 40.7883 44.7691 40.846C45.4037 40.2499 45.721 39.548 45.721 38.7403ZM71.5383 59.0768C71.5383 61.3845 70.721 63.3364 69.0864 64.9326L64.846 69.1441C63.2499 70.7403 61.298 71.5383 58.9903 71.5383C56.6633 71.5383 54.7018 70.721 53.1057 69.0864L47.1633 63.1153C45.5672 61.5191 44.7691 59.5672 44.7691 57.2595C44.7691 54.8941 45.6153 52.8845 47.3076 51.2307L44.7691 48.6922C43.1153 50.3845 41.1153 51.2307 38.7691 51.2307C36.4614 51.2307 34.4999 50.423 32.8845 48.8076L26.8845 42.8076C25.2691 41.1922 24.4614 39.2307 24.4614 36.923C24.4614 34.6153 25.2787 32.6633 26.9133 31.0672L31.1537 26.8557C32.7499 25.2595 34.7018 24.4614 37.0095 24.4614C39.3364 24.4614 41.298 25.2787 42.8941 26.9133L48.8364 32.8845C50.4326 34.4807 51.2307 36.4326 51.2307 38.7403C51.2307 41.1057 50.3845 43.1153 48.6922 44.7691L51.2307 47.3076C52.8845 45.6153 54.8845 44.7691 57.2307 44.7691C59.5383 44.7691 61.4999 45.5768 63.1153 47.1922L69.1153 53.1922C70.7307 54.8076 71.5383 56.7691 71.5383 59.0768Z" fill="#FFF291"/>
<defs>
<linearGradient id="paint0_linear_476_3600" x1="-0.332031" y1="-0.130249" x2="95.668" y2="95.8698" gradientUnits="userSpaceOnUse">
<stop stop-color="#FFEF77" stop-opacity="0.25"/>
<stop offset="0.554556" stop-color="#FFEF77" stop-opacity="0.12"/>
<stop offset="1" stop-color="#FFEF77" stop-opacity="0.6"/>
</linearGradient>
<linearGradient id="paint1_linear_476_3600" x1="49.7668" y1="49.5874" x2="105.637" y2="23.6888" gradientUnits="userSpaceOnUse">
<stop stop-color="#FFEF77" stop-opacity="0.4"/>
<stop offset="1" stop-color="#FFEF77"/>
</linearGradient>
</defs>
</svg>
