<svg width="137" height="127" viewBox="0 0 137 127" fill="none" xmlns="http://www.w3.org/2000/svg">
<g opacity="0.4">
<rect width="96" height="96" rx="8" transform="matrix(-0.996195 -0.0871557 -0.422618 0.906308 136.206 39.1113)" fill="url(#paint0_linear_446_420)"/>
</g>
<g opacity="0.75">
<rect width="96" height="96" rx="8" transform="matrix(-0.996195 -0.0871557 -0.422618 0.906308 136.206 23.7393)" fill="url(#paint1_linear_446_420)"/>
</g>
<rect x="-0.354703" y="0.204788" width="95.5" height="95.5" rx="7.75" transform="matrix(-0.996195 -0.0871557 -0.422618 0.906308 135.585 8.35546)" fill="url(#paint2_linear_446_420)"/>
<rect x="-0.354703" y="0.204788" width="95.5" height="95.5" rx="7.75" transform="matrix(-0.996195 -0.0871557 -0.422618 0.906308 135.585 8.35546)" stroke="url(#paint3_linear_446_420)" stroke-width="0.5"/>
<path d="M54.1 39.5697C54.4944 39.3372 54.9194 39.1654 55.347 39.0657L58.1996 32.9481C58.3604 32.6034 58.665 32.286 59.0466 32.0657C59.4281 31.8454 59.8553 31.7403 60.2342 31.7735C60.6093 31.8112 60.9051 31.9811 61.0587 32.2472C61.2123 32.5132 61.2116 32.8544 61.0567 33.1981L58.3494 39.0039L58.7678 39.0405C60.394 37.0477 62.6132 35.3686 65.095 34.2532C67.5767 33.1377 70.1884 32.6457 72.5412 32.8502L83.0391 33.7686C85.3907 33.9757 87.3567 34.8683 88.6444 36.3135C89.9322 37.7587 90.4728 39.6792 90.1858 41.7892L90.7377 41.8375L93.445 36.0317C93.6057 35.687 93.9104 35.3696 94.2919 35.1493C94.6735 34.929 95.1007 34.8239 95.4796 34.857C95.8584 34.8902 96.1579 35.0589 96.3122 35.3261C96.4664 35.5932 96.4628 35.937 96.3021 36.2817L93.441 42.4174C93.7265 42.5826 93.9533 42.8041 94.1091 43.0701C94.4702 43.7071 94.46 44.5227 94.0808 45.3409L89.9426 54.2155C89.7541 54.6208 89.4796 55.0145 89.1347 55.3742C88.7898 55.7338 88.3814 56.0522 87.9328 56.3112C87.4842 56.5702 87.0042 56.7647 86.5203 56.8836C86.0364 57.0025 85.5582 57.0433 85.1129 57.0039L83.2082 56.8372C81.582 58.8301 79.3628 60.5092 76.8811 61.6246C74.3993 62.74 71.7876 63.2321 69.4348 63.0275L59.1083 62.1241C56.7567 61.917 54.7907 61.0245 53.5029 59.5793C52.2152 58.134 51.6746 56.2135 51.9616 54.1035L50.0588 53.937C49.6131 53.8985 49.209 53.7805 48.8696 53.5896C48.5301 53.3987 48.262 53.1387 48.0807 52.8246C47.8993 52.5105 47.8082 52.1484 47.8126 51.7589C47.8171 51.3695 47.9169 50.9605 48.1064 50.5553L52.2447 41.6807C52.5767 40.8797 53.2427 40.123 54.1 39.5697ZM84.743 54.2662L86.2493 54.398C86.3909 54.4114 86.5511 54.3732 86.6949 54.2917C86.8332 54.2043 86.944 54.0864 87.0078 53.9587L91.1461 45.0842C91.2081 44.9607 91.2148 44.836 91.1648 44.737C91.1147 44.638 91.0118 44.5727 90.8785 44.5551L89.3344 44.4201C89.3079 44.4961 89.2725 44.5721 89.2287 44.6466L84.8487 54.0396C84.8222 54.1157 84.7868 54.1916 84.743 54.2662ZM78.9016 47.6577L81.084 42.9776C81.2053 42.7738 81.2797 42.5632 81.3024 42.3597C81.3251 42.1562 81.2955 41.9643 81.2156 41.7965C81.1357 41.6287 81.0073 41.4889 80.8387 41.3861C80.6702 41.2833 80.4653 41.2198 80.2374 41.1999C80.0096 41.18 79.7639 41.204 79.5164 41.2704C79.269 41.3368 79.0253 41.4441 78.8013 41.5853C78.5774 41.7265 78.3781 41.8984 78.2167 42.0897C78.0552 42.2811 77.9351 42.4877 77.8643 42.6959L75.6819 47.3761C75.5606 47.5799 75.4862 47.7904 75.4635 47.9939C75.4408 48.1974 75.4704 48.3893 75.5503 48.5571C75.6302 48.7249 75.7586 48.8648 75.9272 48.9676C76.0957 49.0704 76.3006 49.1338 76.5285 49.1537C76.7563 49.1737 77.002 49.1497 77.2495 49.0832C77.4969 49.0168 77.7406 48.9095 77.9646 48.7683C78.1885 48.6272 78.3878 48.4553 78.5492 48.2639C78.7107 48.0725 78.8308 47.866 78.9016 47.6577ZM63.431 55.322L71.2412 56.0053C71.6705 56.0429 72.1546 55.9237 72.587 55.6741C73.0194 55.4245 73.3646 55.0648 73.5468 54.6742C73.7289 54.2836 73.733 53.8941 73.5582 53.5913C73.3834 53.2886 73.044 53.0974 72.6147 53.0598L64.8045 52.3765C64.3749 52.3389 63.8905 52.4581 63.4579 52.7079C63.0252 52.9577 62.6798 53.3176 62.4975 53.7085C62.3153 54.0993 62.3112 54.4891 62.4861 54.792C62.661 55.0949 63.0014 55.2844 63.431 55.322ZM63.908 46.3479C63.7258 46.7387 63.7216 47.1285 63.8965 47.4314C64.0714 47.7343 64.4111 47.9256 64.8407 47.9632C65.2703 48.0008 65.7547 47.8816 66.1873 47.6318C66.6199 47.382 66.9654 47.0221 67.1476 46.6313L69.3309 41.9493C69.5131 41.5585 69.5173 41.1687 69.3424 40.8658C69.1675 40.5628 68.8279 40.3715 68.3983 40.3339C67.9687 40.2963 67.4842 40.4156 67.0516 40.6654C66.619 40.9151 66.2735 41.275 66.0913 41.6659L63.908 46.3479ZM50.7534 50.7888C50.6942 50.9156 50.6909 51.0474 50.7434 51.1482C50.773 51.1976 50.8162 51.2384 50.8707 51.2681C50.9252 51.2977 50.9898 51.3158 51.0609 51.3213L52.5651 51.4529C52.5916 51.3768 52.627 51.3008 52.6708 51.2263L57.0829 41.7644C57.1093 41.6884 57.1448 41.6124 57.1885 41.5379L55.6644 41.4045C55.5968 41.3982 55.5241 41.4045 55.4506 41.4231C55.377 41.4416 55.3042 41.472 55.2367 41.5124C55.0971 41.5982 54.9858 41.7168 54.9247 41.8435L50.7534 50.7888Z" fill="#A661FF"/>
<defs>
<linearGradient id="paint0_linear_446_420" x1="-0.332031" y1="-0.130249" x2="95.668" y2="95.8698" gradientUnits="userSpaceOnUse">
<stop stop-color="#C39BF7" stop-opacity="0.25"/>
<stop offset="0.554556" stop-color="#C39BF7" stop-opacity="0.12"/>
<stop offset="1" stop-color="#C39BF7" stop-opacity="0.6"/>
</linearGradient>
<linearGradient id="paint1_linear_446_420" x1="-0.332031" y1="-0.130249" x2="95.668" y2="95.8698" gradientUnits="userSpaceOnUse">
<stop stop-color="#C39BF7" stop-opacity="0.25"/>
<stop offset="0.554556" stop-color="#C39BF7" stop-opacity="0.12"/>
<stop offset="1" stop-color="#C39BF7" stop-opacity="0.6"/>
</linearGradient>
<linearGradient id="paint2_linear_446_420" x1="-0.332031" y1="-0.130249" x2="95.668" y2="95.8698" gradientUnits="userSpaceOnUse">
<stop stop-color="#C39BF7" stop-opacity="0.25"/>
<stop offset="0.554556" stop-color="#C39BF7" stop-opacity="0.12"/>
<stop offset="1" stop-color="#C39BF7" stop-opacity="0.6"/>
</linearGradient>
<linearGradient id="paint3_linear_446_420" x1="49.7668" y1="49.5874" x2="105.637" y2="23.6888" gradientUnits="userSpaceOnUse">
<stop stop-color="#8A38F5" stop-opacity="0.4"/>
<stop offset="1" stop-color="#8A38F5"/>
</linearGradient>
</defs>
</svg>
