<svg width="96" height="96" viewBox="0 0 96 96" fill="none" xmlns="http://www.w3.org/2000/svg">
<rect x="0.25" y="0.25" width="95.5" height="95.5" rx="7.75" fill="url(#paint0_linear_476_4281)"/>
<rect x="0.25" y="0.25" width="95.5" height="95.5" rx="7.75" stroke="url(#paint1_linear_476_4281)" stroke-width="0.5"/>
<path fill-rule="evenodd" clip-rule="evenodd" d="M44.4941 32.9856C47.861 32.8566 51.1468 34.0401 53.6572 36.2874C56.1676 38.5345 57.7069 41.6692 57.9502 45.0296C57.9661 45.0256 57.9828 45.0237 58 45.0237C59.3132 45.0237 60.6139 45.2829 61.8271 45.7854C63.0403 46.288 64.1428 47.0249 65.0713 47.9534C65.9997 48.8819 66.7368 49.9844 67.2393 51.1975C67.7416 52.4106 68 53.7107 68 55.0237C68 58.3095 66.3921 61.2017 63.9463 63.0237H26.7598C25.0819 61.5577 24 59.4276 24 57.0237C24.0001 54.9022 24.8428 52.8676 26.3428 51.3674C27.8431 49.8672 29.8783 49.0237 32 49.0237C32.128 49.0237 32.2461 49.0558 32.3721 49.0618C32.1289 48.0674 32.0039 47.0474 32 46.0237C31.9855 42.6545 33.2803 39.4114 35.6113 36.9788C37.9424 34.5462 41.1274 33.1147 44.4941 32.9856ZM44.2803 51.9036L41.6426 49.346L39.0049 51.9036L44.2803 57.0247L54.0049 47.5823L51.3672 45.0247L44.2803 51.9036Z" fill="#A661FF"/>
<defs>
<linearGradient id="paint0_linear_476_4281" x1="-0.332031" y1="-0.130249" x2="95.668" y2="95.8698" gradientUnits="userSpaceOnUse">
<stop stop-color="#C39BF7" stop-opacity="0.25"/>
<stop offset="0.554556" stop-color="#C39BF7" stop-opacity="0.12"/>
<stop offset="1" stop-color="#C39BF7" stop-opacity="0.6"/>
</linearGradient>
<linearGradient id="paint1_linear_476_4281" x1="49.7668" y1="49.5874" x2="105.637" y2="23.6888" gradientUnits="userSpaceOnUse">
<stop stop-color="#8A38F5" stop-opacity="0.4"/>
<stop offset="1" stop-color="#8A38F5"/>
</linearGradient>
</defs>
</svg>
