<svg width="43" height="56" viewBox="0 0 43 56" fill="none" xmlns="http://www.w3.org/2000/svg">
<path d="M35.8334 3.64738L35.315 7.93003L31.1998 6.96136L21.4435 4.48849L11.8004 6.93277L12.2743 10.8495L21.4104 8.61538L43 13.8513L41.8347 22.367L37.6339 21.3482L38.2121 17.1223L34.3134 16.1767L31.9296 35.8713L27.9852 39.4045L24.7783 36.5184L27.9642 33.6646L30.2016 15.1794L21.4146 13.0485L12.7957 15.1562L15.0358 33.6646L19.4884 37.6531L24.5906 42.2453L24.7163 42.3616L21.5134 45.2308L19.945 43.821L11.0704 35.8713L8.68483 16.1613L4.78672 17.1148L7.69544 38.3729L21.4244 50.3086L35.3061 38.3609L35.8854 34.1271L40.0862 35.1459L39.345 40.564L21.4104 56L3.65504 40.564L0 13.8513L8.16347 11.8548L7.1668 3.61879L12.5894 2.24435L12.5892 2.24415L21.4433 0L35.8334 3.64738Z" fill="#F5F5F5"/>
</svg>
