<svg width="96" height="96" viewBox="0 0 96 96" fill="none" xmlns="http://www.w3.org/2000/svg">
<rect x="0.25" y="0.25" width="95.5" height="95.5" rx="7.75" fill="url(#paint0_linear_476_3590)"/>
<rect x="0.25" y="0.25" width="95.5" height="95.5" rx="7.75" stroke="url(#paint1_linear_476_3590)" stroke-width="0.5"/>
<path d="M55.8 24C56.235 24 56.6552 24.1575 56.983 24.4434C57.3108 24.7293 57.524 25.1243 57.5832 25.5552L57.6 25.8V31.38C59.3316 31.7332 60.921 32.5883 62.1698 33.8389C63.4186 35.0894 64.2716 36.6799 64.6224 38.412H70.2C70.6561 38.4121 71.0951 38.5854 71.4283 38.8967C71.7615 39.2081 71.9642 39.6343 71.9953 40.0893C72.0263 40.5443 71.8836 40.9941 71.5958 41.3479C71.308 41.7017 70.8966 41.933 70.4448 41.9952L70.2 42.012L64.8 42.0096V46.2096H70.2C70.6357 46.2098 71.0565 46.368 71.3845 46.6548C71.7124 46.9417 71.9251 47.3378 71.9832 47.7696L72 48.0096C72.0006 48.445 71.8433 48.8658 71.5574 49.1941C71.2714 49.5224 70.8761 49.736 70.4448 49.7952L70.2 49.812L64.8 49.8096V54.0096H70.2C70.6357 54.0098 71.0565 54.168 71.3845 54.4548C71.7124 54.7417 71.9251 55.1378 71.9832 55.5696L72 55.8096C72.0006 56.245 71.8433 56.6658 71.5574 56.9941C71.2714 57.3224 70.8761 57.536 70.4448 57.5952L70.2 57.612H64.6176C64.26 59.3378 63.4049 60.9211 62.1578 62.1665C60.9108 63.4119 59.3263 64.2648 57.6 64.62V70.2C57.5999 70.6561 57.4266 71.0951 57.1153 71.4283C56.8039 71.7615 56.3777 71.9642 55.9227 71.9953C55.4677 72.0263 55.0179 71.8836 54.6641 71.5958C54.3103 71.308 54.079 70.8966 54.0168 70.4448L54 70.2V64.7976H49.7976L49.8 70.2C49.8 70.635 49.6425 71.0552 49.3566 71.383C49.0707 71.7108 48.6757 71.924 48.2448 71.9832L48 72C47.565 72 47.1448 71.8425 46.817 71.5566C46.4892 71.2707 46.276 70.8757 46.2168 70.4448L46.2 70.2L46.1976 64.7976H42V70.2C42 70.635 41.8425 71.0552 41.5566 71.383C41.2707 71.7108 40.8757 71.924 40.4448 71.9832L40.2 72C39.765 72 39.3448 71.8425 39.017 71.5566C38.6892 71.2707 38.476 70.8757 38.4168 70.4448L38.4 70.2V64.62C36.6704 64.2673 35.0827 63.4137 33.8345 62.1655C32.5863 60.9173 31.7327 59.3296 31.38 57.6H25.8C25.3439 57.5999 24.9049 57.4266 24.5717 57.1153C24.2385 56.8039 24.0358 56.3777 24.0047 55.9227C23.9737 55.4677 24.1164 55.0179 24.4042 54.6641C24.692 54.3103 25.1034 54.079 25.5552 54.0168L25.8 54L31.2 53.9976V49.7976L25.8 49.8C25.365 49.8 24.9448 49.6425 24.617 49.3566C24.2892 49.0707 24.076 48.6757 24.0168 48.2448L24 48C24 47.565 24.1575 47.1448 24.4434 46.817C24.7293 46.4892 25.1243 46.276 25.5552 46.2168L25.8 46.2L31.2 46.1976V41.9976L25.8 42C25.365 42 24.9448 41.8425 24.617 41.5566C24.2892 41.2707 24.076 40.8757 24.0168 40.4448L24 40.2C24 39.765 24.1575 39.3448 24.4434 39.017C24.7293 38.6892 25.1243 38.476 25.5552 38.4168L25.8 38.4L31.38 38.3976C31.7332 36.6684 32.5869 35.0813 33.8351 33.8335C35.0833 32.5858 36.6707 31.7326 38.4 31.38V25.8C38.4001 25.3439 38.5734 24.9049 38.8847 24.5717C39.1961 24.2385 39.6223 24.0358 40.0773 24.0047C40.5323 23.9737 40.9821 24.1164 41.3359 24.4042C41.6897 24.692 41.921 25.1034 41.9832 25.5552L42 25.8V31.1976H46.1976L46.2 25.8C46.2 25.365 46.3575 24.9448 46.6434 24.617C46.9293 24.2892 47.3243 24.076 47.7552 24.0168L48 24C48.435 24 48.8552 24.1575 49.183 24.4434C49.5108 24.7293 49.724 25.1243 49.7832 25.5552L49.8 25.8L49.7976 31.1976H54V25.8C53.9999 25.4062 54.129 25.0232 54.3674 24.7098C54.6058 24.3964 54.9405 24.1698 55.32 24.0648L55.5552 24.0168L55.8 24ZM48.012 40.812C46.1024 40.812 44.2711 41.5706 42.9208 42.9208C41.5706 44.2711 40.812 46.1024 40.812 48.012C40.812 49.9216 41.5706 51.7529 42.9208 53.1032C44.2711 54.4534 46.1024 55.212 48.012 55.212C49.9216 55.212 51.7529 54.4534 53.1032 53.1032C54.4534 51.7529 55.212 49.9216 55.212 48.012C55.212 46.1024 54.4534 44.2711 53.1032 42.9208C51.7529 41.5706 49.9216 40.812 48.012 40.812ZM48.012 44.412C48.9668 44.412 49.8825 44.7913 50.5576 45.4664C51.2327 46.1415 51.612 47.0572 51.612 48.012C51.612 48.9668 51.2327 49.8825 50.5576 50.5576C49.8825 51.2327 48.9668 51.612 48.012 51.612C47.0572 51.612 46.1415 51.2327 45.4664 50.5576C44.7913 49.8825 44.412 48.9668 44.412 48.012C44.412 47.0572 44.7913 46.1415 45.4664 45.4664C46.1415 44.7913 47.0572 44.412 48.012 44.412Z" fill="#01E6DD"/>
<defs>
<linearGradient id="paint0_linear_476_3590" x1="-0.332031" y1="-0.130249" x2="95.668" y2="95.8698" gradientUnits="userSpaceOnUse">
<stop stop-color="#01E6DD" stop-opacity="0.25"/>
<stop offset="0.554556" stop-color="#01E6DD" stop-opacity="0.12"/>
<stop offset="1" stop-color="#01E6DD" stop-opacity="0.6"/>
</linearGradient>
<linearGradient id="paint1_linear_476_3590" x1="49.7668" y1="49.5874" x2="105.637" y2="23.6888" gradientUnits="userSpaceOnUse">
<stop stop-color="#01E6DD" stop-opacity="0.4"/>
<stop offset="1" stop-color="#01E6DD"/>
</linearGradient>
</defs>
</svg>
