<svg width="80" height="80" viewBox="0 0 80 80" fill="none" xmlns="http://www.w3.org/2000/svg">
<rect x="0.25" y="0.25" width="79.5" height="79.5" rx="7.75" fill="url(#paint0_linear_637_6736)"/>
<rect x="0.25" y="0.25" width="79.5" height="79.5" rx="7.75" stroke="url(#paint1_linear_637_6736)" stroke-width="0.5"/>
<path fill-rule="evenodd" clip-rule="evenodd" d="M38.83 23.6584C39.4875 23.4117 40.2061 23.3791 40.8833 23.565L41.17 23.6584L52.8367 28.0334C53.428 28.2551 53.9441 28.6402 54.3251 29.1438C54.706 29.6475 54.936 30.249 54.9883 30.8784L55 31.155V40.0934C54.9996 42.7938 54.2703 45.444 52.8889 47.7644C51.5075 50.0848 49.5254 51.9892 47.1517 53.2767L46.7083 53.51L41.1183 56.3034C40.8107 56.4573 40.4745 56.5461 40.131 56.5642C39.7874 56.5822 39.4438 56.5292 39.1217 56.4084L38.8817 56.305L33.2917 53.5084C30.876 52.3005 28.8313 50.4629 27.3733 48.1894C25.9154 45.9159 25.0983 43.291 25.0083 40.5917L25 40.0917V31.1567C25 30.5253 25.1794 29.9068 25.5172 29.3733C25.8551 28.8399 26.3375 28.4133 26.9083 28.1434L27.1633 28.035L38.83 23.6584ZM38.5717 33.5867L35.2533 39.1167C35.0999 39.3721 35.0171 39.6637 35.0132 39.9617C35.0094 40.2596 35.0847 40.5532 35.2315 40.8125C35.3782 41.0719 35.5912 41.2876 35.8486 41.4376C36.1061 41.5877 36.3987 41.6667 36.6967 41.6667H40.39L38.5717 44.6984C38.3593 45.0765 38.3027 45.5225 38.4139 45.9417C38.5251 46.3608 38.7952 46.7202 39.167 46.9434C39.5388 47.1666 39.983 47.2361 40.4052 47.1371C40.8274 47.0382 41.1944 46.7785 41.4283 46.4134L44.7467 40.8834C44.9001 40.6279 44.9829 40.3363 44.9868 40.0384C44.9906 39.7405 44.9153 39.4468 44.7685 39.1875C44.6218 38.9282 44.4088 38.7125 44.1514 38.5624C43.8939 38.4124 43.6013 38.3333 43.3033 38.3334H39.61L41.43 35.3017C41.6574 34.9224 41.7249 34.4684 41.6175 34.0394C41.5101 33.6104 41.2368 33.2416 40.8575 33.0142C40.4782 32.7868 40.0242 32.7193 39.5952 32.8267C39.1662 32.9341 38.7991 33.2074 38.5717 33.5867Z" fill="#66FF94"/>
<defs>
<linearGradient id="paint0_linear_637_6736" x1="-0.276693" y1="-0.108541" x2="79.7233" y2="79.8915" gradientUnits="userSpaceOnUse">
<stop stop-color="#66FF94" stop-opacity="0.25"/>
<stop offset="0.554556" stop-color="#66FF94" stop-opacity="0.12"/>
<stop offset="1" stop-color="#66FF94" stop-opacity="0.6"/>
</linearGradient>
<linearGradient id="paint1_linear_637_6736" x1="41.4724" y1="41.3229" x2="88.0309" y2="19.7406" gradientUnits="userSpaceOnUse">
<stop stop-color="#66FF94" stop-opacity="0.4"/>
<stop offset="1" stop-color="#66FF94"/>
</linearGradient>
</defs>
</svg>
