<svg width="80" height="80" viewBox="0 0 80 80" fill="none" xmlns="http://www.w3.org/2000/svg">
<rect x="0.25" y="0.25" width="79.5" height="79.5" rx="7.75" fill="url(#paint0_linear_967_4019)"/>
<rect x="0.25" y="0.25" width="79.5" height="79.5" rx="7.75" stroke="url(#paint1_linear_967_4019)" stroke-width="0.5"/>
<g clip-path="url(#clip0_967_4019)">
<path d="M26.25 25H18.75C18.0625 25 17.5 25.5625 17.5 26.25V53.75C17.5 54.4375 18.0625 55 18.75 55H26.25C26.9375 55 27.5 54.4375 27.5 53.75V26.25C27.5 25.5625 26.9375 25 26.25 25ZM25 32.5H20V30H25V32.5ZM38.75 25H31.25C30.5625 25 30 25.5625 30 26.25V53.75C30 54.4375 30.5625 55 31.25 55H38.75C39.4375 55 40 54.4375 40 53.75V26.25C40 25.5625 39.4375 25 38.75 25ZM37.5 32.5H32.5V30H37.5V32.5Z" fill="#FFF291"/>
<path d="M47.385 26.9325L40.6875 30.3075C40.3915 30.4565 40.1668 30.7169 40.0628 31.0314C39.9587 31.3459 39.9838 31.6889 40.1325 31.985L51.3825 54.31C51.5314 54.606 51.7918 54.8306 52.1063 54.9347C52.4209 55.0388 52.7639 55.0137 53.06 54.865L59.7575 51.49C60.0534 51.341 60.2781 51.0807 60.3822 50.7661C60.4862 50.4516 60.4612 50.1086 60.3125 49.8125L49.0625 27.4875C48.9135 27.1916 48.6531 26.9669 48.3386 26.8628C48.024 26.7588 47.681 26.7838 47.385 26.9325Z" fill="#FFF291"/>
<path d="M53.75 53.75C53.75 54.0815 53.6183 54.3995 53.3839 54.6339C53.1495 54.8683 52.8315 55 52.5 55C52.1685 55 51.8505 54.8683 51.6161 54.6339C51.3817 54.3995 51.25 54.0815 51.25 53.75C51.25 53.4185 51.3817 53.1005 51.6161 52.8661C51.8505 52.6317 52.1685 52.5 52.5 52.5C52.8315 52.5 53.1495 52.6317 53.3839 52.8661C53.6183 53.1005 53.75 53.4185 53.75 53.75Z" fill="#FFF291"/>
</g>
<defs>
<linearGradient id="paint0_linear_967_4019" x1="-0.276693" y1="-0.108541" x2="79.7233" y2="79.8915" gradientUnits="userSpaceOnUse">
<stop stop-color="#FFF291" stop-opacity="0.25"/>
<stop offset="0.554556" stop-color="#FFF291" stop-opacity="0.12"/>
<stop offset="1" stop-color="#FFF291" stop-opacity="0.6"/>
</linearGradient>
<linearGradient id="paint1_linear_967_4019" x1="41.4724" y1="41.3229" x2="88.0309" y2="19.7406" gradientUnits="userSpaceOnUse">
<stop stop-color="#FFF291" stop-opacity="0.4"/>
<stop offset="1" stop-color="#FFF291"/>
</linearGradient>
<clipPath id="clip0_967_4019">
<rect width="45" height="40" fill="white" transform="translate(17.5 20)"/>
</clipPath>
</defs>
</svg>
