<svg width="96" height="96" viewBox="0 0 96 96" fill="none" xmlns="http://www.w3.org/2000/svg">
<rect x="0.25" y="0.25" width="95.5" height="95.5" rx="7.75" fill="url(#paint0_linear_742_5378)"/>
<rect x="0.25" y="0.25" width="95.5" height="95.5" rx="7.75" stroke="url(#paint1_linear_742_5378)" stroke-width="0.5"/>
<path d="M28.0997 49.9998H39.0537C39.3959 56.3335 41.4148 62.4626 44.9037 67.7598C40.5332 67.0737 36.5132 64.9587 33.4725 61.7453C30.4317 58.5319 28.5436 54.4015 28.0997 49.9998ZM28.0977 45.9998C28.5411 41.598 30.4307 37.4673 33.4711 34.2536C36.5115 31.0399 40.5312 28.9243 44.9017 28.2378C41.4128 33.535 39.3939 39.6641 39.0517 45.9978L28.0977 45.9998ZM67.8977 45.9998H56.9437C56.6018 39.6654 54.5829 33.5356 51.0937 28.2378C55.4642 28.9238 59.4841 31.0389 62.5248 34.2523C65.5656 37.4656 67.4557 41.5961 67.8997 45.9978M67.8997 49.9978C67.4558 54.3992 65.566 58.5294 62.5256 61.7428C59.4853 64.9561 55.4658 67.0713 51.0957 67.7578C54.5842 62.4612 56.6031 56.3328 56.9457 49.9998L67.8997 49.9978ZM43.0597 49.9998H52.9397C52.6112 55.3989 50.9109 60.625 47.9997 65.1838C45.0884 60.625 43.3881 55.3989 43.0597 49.9998ZM43.0597 45.9998C43.3881 40.6007 45.0884 35.3746 47.9997 30.8158C50.9109 35.3746 52.6112 40.6007 52.9397 45.9998H43.0597Z" fill="#8DB1FF"/>
<defs>
<linearGradient id="paint0_linear_742_5378" x1="-0.332031" y1="-0.130249" x2="95.668" y2="95.8698" gradientUnits="userSpaceOnUse">
<stop stop-color="#8DB1FF" stop-opacity="0.25"/>
<stop offset="0.554556" stop-color="#8DB1FF" stop-opacity="0.12"/>
<stop offset="1" stop-color="#8DB1FF" stop-opacity="0.6"/>
</linearGradient>
<linearGradient id="paint1_linear_742_5378" x1="49.7668" y1="49.5874" x2="105.637" y2="23.6888" gradientUnits="userSpaceOnUse">
<stop stop-color="#8DB1FF" stop-opacity="0.4"/>
<stop offset="1" stop-color="#8DB1FF"/>
</linearGradient>
</defs>
</svg>
