<svg width="96" height="96" viewBox="0 0 96 96" fill="none" xmlns="http://www.w3.org/2000/svg">
<rect x="0.25" y="0.25" width="95.5" height="95.5" rx="7.75" fill="url(#paint0_linear_698_5337)"/>
<rect x="0.25" y="0.25" width="95.5" height="95.5" rx="7.75" stroke="url(#paint1_linear_698_5337)" stroke-width="0.5"/>
<path fill-rule="evenodd" clip-rule="evenodd" d="M48 34C54.6274 34 60 39.3726 60 46C60 50.4417 57.5868 54.3197 54 56.3946V64L52 66H50C50 67.1046 49.1045 68 48 68C46.8954 68 46 67.1046 46 66H44L42 64V56.3946C38.4131 54.3197 36 50.4417 36 46C36 39.3726 41.3726 34 48 34ZM50.0001 57.834C49.3392 57.9447 48.6701 58.0002 48 58C47.3185 58 46.6503 57.9432 45.9999 57.834L46 62H50L50.0001 57.834ZM37.0398 54.8388L39.1611 56.9602L34.9186 61.2028L32.7972 59.0815L37.0398 54.8388ZM58.9602 54.8388L63.2028 59.0815L61.0815 61.2028L56.8388 56.9602L58.9602 54.8388ZM68 44.5001V47.5001H62V44.5001H68ZM34 44.5001V47.5001H28V44.5001H34ZM61.0816 30.7972L63.2028 32.9186L58.9602 37.1611L56.8388 35.0398L61.0816 30.7972ZM34.9186 30.7972L39.1611 35.0398L37.0398 37.1611L32.7972 32.9186L34.9186 30.7972ZM49.5 26V32H46.5V26H49.5Z" fill="#01E6DD"/>
<defs>
<linearGradient id="paint0_linear_698_5337" x1="-0.332031" y1="-0.130249" x2="95.668" y2="95.8698" gradientUnits="userSpaceOnUse">
<stop stop-color="#01E6DD" stop-opacity="0.25"/>
<stop offset="0.554556" stop-color="#01E6DD" stop-opacity="0.12"/>
<stop offset="1" stop-color="#01E6DD" stop-opacity="0.901961"/>
</linearGradient>
<linearGradient id="paint1_linear_698_5337" x1="49.7668" y1="49.5874" x2="105.637" y2="23.6888" gradientUnits="userSpaceOnUse">
<stop stop-color="#01E6DD" stop-opacity="0.4"/>
<stop offset="1" stop-color="#01E6DD"/>
</linearGradient>
</defs>
</svg>
