<svg width="96" height="96" viewBox="0 0 96 96" fill="none" xmlns="http://www.w3.org/2000/svg">
<rect x="0.25" y="0.25" width="95.5" height="95.5" rx="7.75" fill="url(#paint0_linear_698_7075)"/>
<rect x="0.25" y="0.25" width="95.5" height="95.5" rx="7.75" stroke="url(#paint1_linear_698_7075)" stroke-width="0.5"/>
<path d="M56 58.0001V62.0001H28V58.0001C28 58.0001 28 50.0001 42 50.0001C56 50.0001 56 58.0001 56 58.0001ZM49 39.0001C49 37.6156 48.5895 36.2622 47.8203 35.1111C47.0511 33.9599 45.9579 33.0627 44.6788 32.5329C43.3997 32.0031 41.9922 31.8645 40.6344 32.1346C39.2765 32.4047 38.0292 33.0714 37.0503 34.0503C36.0713 35.0293 35.4046 36.2766 35.1345 37.6344C34.8644 38.9923 35.003 40.3998 35.5328 41.6789C36.0627 42.9579 36.9599 44.0512 38.111 44.8204C39.2622 45.5895 40.6155 46.0001 42 46.0001C43.8565 46.0001 45.637 45.2626 46.9497 43.9498C48.2625 42.6371 49 40.8566 49 39.0001ZM55.88 50.0001C57.1095 50.9516 58.1155 52.1609 58.8274 53.5431C59.5392 54.9252 59.9394 56.4466 60 58.0001V62.0001H68V58.0001C68 58.0001 68 50.7401 55.88 50.0001ZM54 32.0001C52.6236 31.9937 51.2776 32.4051 50.14 33.1801C51.3549 34.8775 52.0081 36.9126 52.0081 39.0001C52.0081 41.0875 51.3549 43.1226 50.14 44.8201C51.2776 45.595 52.6236 46.0065 54 46.0001C55.8565 46.0001 57.637 45.2626 58.9497 43.9498C60.2625 42.6371 61 40.8566 61 39.0001C61 37.1436 60.2625 35.3631 58.9497 34.0503C57.637 32.7376 55.8565 32.0001 54 32.0001Z" fill="#66FF94"/>
<defs>
<linearGradient id="paint0_linear_698_7075" x1="-0.332031" y1="-0.130249" x2="95.668" y2="95.8698" gradientUnits="userSpaceOnUse">
<stop stop-color="#66FF94" stop-opacity="0.25"/>
<stop offset="0.554556" stop-color="#66FF94" stop-opacity="0.12"/>
<stop offset="1" stop-color="#66FF94" stop-opacity="0.6"/>
</linearGradient>
<linearGradient id="paint1_linear_698_7075" x1="49.7668" y1="49.5874" x2="105.637" y2="23.6888" gradientUnits="userSpaceOnUse">
<stop stop-color="#66FF94" stop-opacity="0.4"/>
<stop offset="1" stop-color="#66FF94"/>
</linearGradient>
</defs>
</svg>
