<svg width="204" height="188" viewBox="0 0 204 188" fill="none" xmlns="http://www.w3.org/2000/svg">
<g opacity="0.4">
<rect width="132.044" height="132.044" rx="8" transform="matrix(0.965926 -0.258819 0.573576 0.819152 0 78.8547)" fill="url(#paint0_linear_637_58)"/>
</g>
<g opacity="0.75">
<rect width="132.044" height="132.044" rx="8" transform="matrix(0.965926 -0.258819 0.573576 0.819152 0 56.5151)" fill="url(#paint1_linear_637_58)"/>
</g>
<rect x="0.384876" y="0.140083" width="131.544" height="131.544" rx="7.75" transform="matrix(0.965926 -0.258819 0.573576 0.819152 -0.0672341 34.3004)" fill="url(#paint2_linear_637_58)"/>
<rect x="0.384876" y="0.140083" width="131.544" height="131.544" rx="7.75" transform="matrix(0.965926 -0.258819 0.573576 0.819152 -0.0672341 34.3004)" stroke="url(#paint3_linear_637_58)" stroke-width="0.5"/>
<g filter="url(#filter3_d_637_58)">
<path d="M110.472 46.9176L117.713 46.2805C118.101 46.2463 118.538 46.3859 118.843 46.6504C118.993 46.7784 119.103 46.9278 119.161 47.0827C119.22 47.2376 119.224 47.3922 119.175 47.53L117.023 53.4503C116.763 54.1563 116.115 54.6878 115.22 54.9292L110.822 56.1077L106.338 68.4363C107.021 69.0545 107.553 69.7492 107.9 70.4739C108.246 71.1987 108.398 71.9369 108.346 72.6395C108.293 73.3421 108.038 73.9928 107.597 74.5484C107.156 75.1039 106.538 75.5516 105.786 75.8614C105.034 76.1713 104.165 76.3363 103.235 76.3455C102.306 76.3546 101.339 76.2077 100.397 75.9145C99.4562 75.6213 98.5627 75.1885 97.7765 74.645C96.9903 74.1016 96.3294 73.4598 95.838 72.7626C95.31 72.0089 94.9936 71.2104 94.9133 70.429C94.8331 69.6476 94.9911 68.9043 95.3751 68.2565C95.7591 67.6088 96.3588 67.074 97.1279 66.6936C97.8969 66.3132 98.8146 66.0973 99.8099 66.0628L104.295 53.7299L101.688 50.0064C101.156 49.2467 101 48.4212 101.257 47.7144L103.412 41.7931C103.463 41.6556 103.566 41.5401 103.71 41.459C103.854 41.3779 104.035 41.3341 104.232 41.3324C104.635 41.3255 105.06 41.4995 105.336 41.7756L110.472 46.9176Z" fill="#1EFFF6"/>
<path d="M78.4602 77.4187C80.4315 80.2273 83.0899 82.8122 86.2562 84.9989C89.4224 87.1856 93.0227 88.9233 96.8143 90.0948C100.606 91.2662 104.501 91.8443 108.236 91.7898C111.971 91.7354 115.459 91.0497 118.466 89.7792C121.473 88.5086 123.927 86.6826 125.665 84.4244C127.402 82.1663 128.382 79.5284 128.538 76.6888C128.694 73.8491 128.022 70.8738 126.568 67.9635C125.114 65.0532 122.912 62.2756 120.11 59.818C119.761 59.5366 119.476 59.2158 119.273 58.8752C119.069 58.5345 118.951 58.1811 118.926 57.8364C118.901 57.4918 118.969 57.1631 119.126 56.8704C119.283 56.5776 119.526 56.327 119.84 56.1338C120.154 55.9405 120.532 55.8087 120.952 55.7463C121.372 55.6839 121.824 55.6922 122.282 55.7707C122.74 55.8493 123.193 55.9964 123.614 56.2032C124.035 56.4099 124.415 56.672 124.732 56.9734C130.158 61.7327 133.73 67.4024 134.888 73.0929C136.046 78.7835 134.724 84.173 131.129 88.4159C127.535 92.6588 121.871 95.515 115.027 96.5364C108.183 97.5578 100.546 96.6867 93.3134 94.0596C86.0815 91.425 79.6675 87.1835 75.0785 82.001C70.4895 76.8185 67.9853 70.9885 67.959 65.4263C67.9328 59.8642 70.3861 54.8848 74.9336 51.27C79.4812 47.6553 85.8655 45.6098 93.0842 45.4547C93.9464 45.44 94.8612 45.6953 95.6287 46.1647C96.3962 46.6342 96.9539 47.2797 97.1801 47.9602C97.4063 48.6406 97.2825 49.3007 96.8358 49.7962C96.389 50.2917 95.6557 50.5822 94.796 50.6044C90.7576 50.6887 87.0203 51.5133 83.8788 53.0132C80.7373 54.513 78.2775 56.6472 76.6935 59.2472C75.1095 61.8473 74.4446 64.8422 74.7512 67.9957C75.0577 71.1491 76.3275 74.375 78.4602 77.4187Z" fill="#1EFFF6"/>
<path d="M90.0451 74.3148C91.2987 76.1047 93.1047 77.7062 95.2684 78.9466C97.4321 80.1869 99.8713 81.019 102.323 81.353C104.775 81.6871 107.146 81.5105 109.18 80.8423C111.215 80.1741 112.836 79.0396 113.868 77.5612C114.899 76.0803 115.3 74.3117 115.029 72.4465C114.757 70.5813 113.824 68.6906 112.329 66.9788C111.959 66.5652 111.721 66.1076 111.639 65.6529C111.557 65.1982 111.634 64.763 111.863 64.392C112.091 64.021 112.463 63.7276 112.939 63.5421C113.415 63.3566 113.978 63.2857 114.571 63.3366C115.162 63.3852 115.762 63.5531 116.31 63.8232C116.857 64.0932 117.333 64.4558 117.688 64.8738C120.236 67.8007 121.682 71.0648 121.827 74.213C121.971 77.3611 120.806 80.2372 118.494 82.4421C116.181 84.6469 112.836 86.0711 108.922 86.517C105.008 86.9629 100.72 86.4083 96.6525 84.9303C92.585 83.4523 88.9401 81.1242 86.2236 78.2691C83.5072 75.4139 81.8539 72.1734 81.4934 68.9973C81.1328 65.8212 82.0828 62.867 84.2115 60.5448C86.3402 58.2226 89.542 56.6475 93.3725 56.0382C93.7775 55.9656 94.2168 55.9606 94.6646 56.0234C95.1125 56.0863 95.5599 56.2158 95.9806 56.4044C96.4013 56.593 96.7869 56.8368 97.1148 57.1216C97.4426 57.4064 97.7061 57.7264 97.8899 58.0629C98.0736 58.3994 98.1738 58.7457 98.1847 59.0813C98.1956 59.4169 98.1169 59.7351 97.9533 60.0174C97.7896 60.2997 97.5443 60.5403 97.2317 60.7251C96.919 60.9099 96.5454 61.0352 96.1327 61.0936C94.3976 61.3687 92.8461 61.9426 91.5803 62.7776C90.3144 63.6126 89.3627 64.6898 88.7878 65.9385C88.2129 67.1871 88.0277 68.579 88.2444 70.0226C88.461 71.4663 89.0747 72.929 90.0451 74.3148Z" fill="#1EFFF6"/>
</g>
<defs>
<filter id="filter3_d_637_58" x="67.959" y="41.3322" width="75.3369" height="63.6204" filterUnits="userSpaceOnUse" color-interpolation-filters="sRGB">
<feFlood flood-opacity="0" result="BackgroundImageFix"/>
<feColorMatrix in="SourceAlpha" type="matrix" values="0 0 0 0 0 0 0 0 0 0 0 0 0 0 0 0 0 0 127 0" result="hardAlpha"/>
<feOffset dx="4" dy="4"/>
<feGaussianBlur stdDeviation="2"/>
<feComposite in2="hardAlpha" operator="out"/>
<feColorMatrix type="matrix" values="0 0 0 0 0 0 0 0 0 0 0 0 0 0 0 0 0 0 0.25 0"/>
<feBlend mode="normal" in2="BackgroundImageFix" result="effect1_dropShadow_637_58"/>
<feBlend mode="normal" in="SourceGraphic" in2="effect1_dropShadow_637_58" result="shape"/>
</filter>
<linearGradient id="paint0_linear_637_58" x1="-0.456695" y1="-0.179152" x2="131.587" y2="131.865" gradientUnits="userSpaceOnUse">
<stop stop-color="#FE8FEB"/>
<stop offset="0.554556" stop-color="#01E6DD" stop-opacity="0.12"/>
<stop offset="1" stop-color="#01E6DD" stop-opacity="0.6"/>
</linearGradient>
<linearGradient id="paint1_linear_637_58" x1="-0.456695" y1="-0.179152" x2="131.587" y2="131.865" gradientUnits="userSpaceOnUse">
<stop stop-color="#FE8FEB"/>
<stop offset="0.554556" stop-color="#01E6DD" stop-opacity="0.12"/>
<stop offset="1" stop-color="#01E6DD" stop-opacity="0.6"/>
</linearGradient>
<linearGradient id="paint2_linear_637_58" x1="-0.456695" y1="-0.179152" x2="131.587" y2="131.865" gradientUnits="userSpaceOnUse">
<stop stop-color="#FE8FEB"/>
<stop offset="0.554556" stop-color="#01E6DD" stop-opacity="0.12"/>
<stop offset="1" stop-color="#01E6DD" stop-opacity="0.6"/>
</linearGradient>
<linearGradient id="paint3_linear_637_58" x1="68.4522" y1="68.2055" x2="145.299" y2="32.5829" gradientUnits="userSpaceOnUse">
<stop stop-color="#01E6DD" stop-opacity="0.4"/>
<stop offset="1" stop-color="#01E6DD"/>
</linearGradient>
</defs>
</svg>
