<svg width="62" height="80" viewBox="0 0 62 80" fill="none" xmlns="http://www.w3.org/2000/svg">
<path d="M51.2821 5.21055L50.5402 11.3286L44.6509 9.94479L30.6884 6.41213L16.8879 9.90395L17.5661 15.4993L30.6411 12.3077L61.5385 19.7876L59.8707 31.9528L53.8588 30.4974L54.6864 24.4605L49.1068 23.1096L45.6953 51.2447L40.0504 56.2921L35.4609 52.1691L40.0203 48.0923L43.2223 21.6849L30.647 18.6407L18.3123 21.6517L21.5182 48.0923L27.8903 53.7901L35.1922 60.3504L35.3722 60.5166L30.7884 64.6154L28.5438 62.6015L15.8432 51.2447L12.4291 23.0876L6.85041 24.4498L11.0132 54.8185L30.6611 71.8694L50.5276 54.8013L51.3565 48.7531L57.3684 50.2084L56.3076 57.9486L30.6411 80L5.23083 57.9486L0 19.7876L11.683 16.9355L10.2566 5.1697L18.0171 3.20621L18.0168 3.20593L30.6881 0L51.2821 5.21055Z" fill="url(#paint0_linear_476_6095)"/>
<defs>
<linearGradient id="paint0_linear_476_6095" x1="61.5385" y1="6.81067" x2="9.00103e-05" y2="73.1894" gradientUnits="userSpaceOnUse">
<stop stop-color="#01E6DD"/>
<stop offset="0.850731" stop-color="#FE8FEB"/>
</linearGradient>
</defs>
</svg>
