<svg width="204" height="188" viewBox="0 0 204 188" fill="none" xmlns="http://www.w3.org/2000/svg">
<g opacity="0.4">
<rect width="132.044" height="132.044" rx="8" transform="matrix(-0.965926 -0.258819 -0.573576 0.819152 203.282 78.8547)" fill="url(#paint0_linear_637_5698)"/>
</g>
<g opacity="0.75">
<rect width="132.044" height="132.044" rx="8" transform="matrix(-0.965926 -0.258819 -0.573576 0.819152 203.282 56.5151)" fill="url(#paint1_linear_637_5698)"/>
</g>
<rect x="-0.384876" y="0.140083" width="131.544" height="131.544" rx="7.75" transform="matrix(-0.965926 -0.258819 -0.573576 0.819152 202.606 34.1012)" fill="url(#paint2_linear_637_5698)"/>
<rect x="-0.384876" y="0.140083" width="131.544" height="131.544" rx="7.75" transform="matrix(-0.965926 -0.258819 -0.573576 0.819152 202.606 34.1012)" stroke="url(#paint3_linear_637_5698)" stroke-width="0.5"/>
<g filter="url(#filter3_d_637_5698)">
<path d="M101.075 47.6698L114.542 51.2783L99.0737 58.8348L101.075 47.6698ZM129.638 55.3232L117.841 63.8635L116.17 51.7147L129.638 55.3232ZM112.734 55.2415L114.004 64.4761L100.976 60.9851L112.734 55.2415ZM97.1917 48.616L95.2492 59.4507L83.8757 56.4031L97.1917 48.616ZM131.178 57.7226L131.206 69.0853L119.731 66.0105L131.178 57.7226ZM116.651 68.5206L129.138 71.8665L88.761 91.0667L88.707 91.0522L116.651 68.5206ZM94.3962 62.5576L86.942 90.5793L86.8881 90.5649L81.9092 59.2117L94.3962 62.5576ZM98.0534 63.5375L112.994 67.5407L92.7409 83.7945L98.0534 63.5375Z" fill="#1EFFF6"/>
</g>
<defs>
<filter id="filter3_d_637_5698" x="81.9092" y="47.6697" width="57.2969" height="51.397" filterUnits="userSpaceOnUse" color-interpolation-filters="sRGB">
<feFlood flood-opacity="0" result="BackgroundImageFix"/>
<feColorMatrix in="SourceAlpha" type="matrix" values="0 0 0 0 0 0 0 0 0 0 0 0 0 0 0 0 0 0 127 0" result="hardAlpha"/>
<feOffset dx="4" dy="4"/>
<feGaussianBlur stdDeviation="2"/>
<feComposite in2="hardAlpha" operator="out"/>
<feColorMatrix type="matrix" values="0 0 0 0 0 0 0 0 0 0 0 0 0 0 0 0 0 0 0.25 0"/>
<feBlend mode="normal" in2="BackgroundImageFix" result="effect1_dropShadow_637_5698"/>
<feBlend mode="normal" in="SourceGraphic" in2="effect1_dropShadow_637_5698" result="shape"/>
</filter>
<linearGradient id="paint0_linear_637_5698" x1="-0.456695" y1="-0.179152" x2="131.587" y2="131.865" gradientUnits="userSpaceOnUse">
<stop stop-color="#FE8FEB"/>
<stop offset="0.554556" stop-color="#01E6DD" stop-opacity="0.12"/>
<stop offset="1" stop-color="#01E6DD" stop-opacity="0.6"/>
</linearGradient>
<linearGradient id="paint1_linear_637_5698" x1="-0.456695" y1="-0.179152" x2="131.587" y2="131.865" gradientUnits="userSpaceOnUse">
<stop stop-color="#FE8FEB"/>
<stop offset="0.554556" stop-color="#01E6DD" stop-opacity="0.12"/>
<stop offset="1" stop-color="#01E6DD" stop-opacity="0.6"/>
</linearGradient>
<linearGradient id="paint2_linear_637_5698" x1="-0.456695" y1="-0.179152" x2="131.587" y2="131.865" gradientUnits="userSpaceOnUse">
<stop stop-color="#FE8FEB"/>
<stop offset="0.554556" stop-color="#01E6DD" stop-opacity="0.12"/>
<stop offset="1" stop-color="#01E6DD" stop-opacity="0.6"/>
</linearGradient>
<linearGradient id="paint3_linear_637_5698" x1="68.4522" y1="68.2055" x2="145.299" y2="32.5829" gradientUnits="userSpaceOnUse">
<stop stop-color="#01E6DD" stop-opacity="0.4"/>
<stop offset="1" stop-color="#01E6DD"/>
</linearGradient>
</defs>
</svg>
