<?xml version="1.0" encoding="UTF-8"?>
<svg version="1.1" xmlns="http://www.w3.org/2000/svg" width="914" height="273">
<path d="M0 0 C4.71821507 1.57273836 8.58807903 3.27670772 12.8125 5.75 C13.95332031 6.40484375 15.09414062 7.0596875 16.26953125 7.734375 C17.15531782 8.28015733 17.15531782 8.28015733 18.05899906 8.83696556 C20.03062978 10.05086021 20.03062978 10.05086021 22.29713345 11.15480995 C28.49983404 14.58832884 28.49983404 14.58832884 29.81559944 18.30195236 C30.1096646 21.16397238 30.11413594 23.90296178 30.02172852 26.77880859 C30.02369987 28.38946198 30.02369987 28.38946198 30.02571106 30.03265381 C30.01945309 33.57292862 29.9495162 37.10891024 29.87890625 40.6484375 C29.86211563 43.10606558 29.84930661 45.56372383 29.84031677 48.02139282 C29.80598945 54.48304748 29.71761162 60.94287485 29.61798096 67.40380859 C29.52583455 73.99942301 29.48479182 80.59533338 29.43945312 87.19140625 C29.34299434 100.12838277 29.19116834 113.06409411 29 126 C25.66876806 127.92033598 22.33463915 129.83558767 19 131.75 C18.06542969 132.28882813 17.13085938 132.82765625 16.16796875 133.3828125 C15.24628906 133.91132813 14.32460937 134.43984375 13.375 134.984375 C12.53710938 135.46616211 11.69921875 135.94794922 10.8359375 136.44433594 C7.27716257 138.39651516 3.63052423 140.18473788 0 142 C0 131.77 0 121.54 0 111 C-9.9 111 -19.8 111 -30 111 C-29.99214478 114.34511719 -29.99214478 114.34511719 -29.98413086 117.7578125 C-29.96752263 125.14582338 -29.95649985 132.53383511 -29.94818783 139.92185974 C-29.94298077 144.3989257 -29.93592285 148.87597244 -29.92456055 153.35302734 C-29.91365406 157.67779732 -29.90770677 162.00254887 -29.90512276 166.32733154 C-29.90328246 167.97304575 -29.89968891 169.61875901 -29.89426994 171.26446533 C-29.88695636 173.57867573 -29.88601338 175.89281106 -29.88647461 178.20703125 C-29.884254 179.5216333 -29.88203339 180.83623535 -29.87974548 182.19067383 C-30.00636181 186.20152429 -30.44282521 190.02900633 -31 194 C-34.83670085 193.41418208 -37.62816303 192.29275372 -40.9765625 190.34765625 C-41.894375 189.81849609 -42.8121875 189.28933594 -43.7578125 188.74414062 C-44.70398438 188.18919922 -45.65015625 187.63425781 -46.625 187.0625 C-47.57890625 186.51142578 -48.5328125 185.96035156 -49.515625 185.39257812 C-53.06894675 183.33315292 -56.58199229 181.27867181 -60 179 C-60.41104317 177.06113338 -60.41104317 177.06113338 -60.46170044 174.64402771 C-60.48750183 173.72872787 -60.51330322 172.81342804 -60.53988647 171.87039185 C-60.55266632 170.86314056 -60.56544617 169.85588928 -60.57861328 168.81811523 C-60.61541199 167.23002296 -60.61541199 167.23002296 -60.6529541 165.60984802 C-60.72761619 162.09281546 -60.77709347 158.57614755 -60.8203125 155.05859375 C-60.83628353 153.8580794 -60.85225456 152.65756504 -60.86870956 151.42067146 C-60.94895959 145.06265123 -61.00705709 138.70480856 -61.05029297 132.34643555 C-61.10017846 125.78294488 -61.23441936 119.22399241 -61.3874073 112.66221523 C-61.48850109 107.61343861 -61.52303147 102.56573376 -61.53997421 97.51603889 C-61.56010322 95.09767143 -61.60575406 92.67937393 -61.67764664 90.2619915 C-62.19403639 71.84272378 -62.19403639 71.84272378 -58.56328583 67.13850784 C-55.08095907 64.1167362 -51.23917098 62.34788135 -46.94184494 60.77150154 C-43.76306801 59.50856275 -40.97594767 57.72271689 -38.0625 55.9375 C-36.37557202 54.95734817 -34.68830818 53.97777252 -33 53 C-31.51831055 54.09887695 -31.51831055 54.09887695 -30 56 C-29.65942383 58.91088867 -29.65942383 58.91088867 -29.70703125 62.41796875 C-29.71827026 64.11215942 -29.71827026 64.11215942 -29.72973633 65.84057617 C-29.75704834 67.27506104 -29.78436035 68.7095459 -29.8125 70.1875 C-29.874375 74.745625 -29.93625 79.30375 -30 84 C-20.1 84 -10.2 84 0 84 C0 56.28 0 28.56 0 0 Z " fill="#FDFDFD" transform="translate(145,39)"/>
<path d="M0 0 C0.69065997 8.10870223 1.12295097 16.19371986 0.8984375 24.33203125 C0.89992294 25.01381943 0.90140839 25.6956076 0.90293884 26.39805603 C0.73485166 30.29517612 -0.06188997 32.50306094 -2.76928711 35.19287109 C-5.37049668 37.1897309 -6.95637357 38.35362719 -10.02734375 39.20703125 C-16.48615695 41.35280297 -22.13416136 44.91448299 -28 48.3125 C-30.12262211 49.50035291 -32.24752477 50.68414245 -34.375 51.86328125 C-36.25180874 52.90560399 -38.12676122 53.95127497 -40 55 C-41.19552994 55.48097641 -42.39105988 55.96195282 -43.62281799 56.45750427 C-45.95634969 57.81042038 -46.83390911 58.47094166 -47.65052605 61.07215595 C-47.90614849 63.82777751 -47.93085841 66.50901407 -47.88647461 69.27636719 C-47.89725037 70.32058334 -47.90802612 71.3647995 -47.91912842 72.44065857 C-47.94654519 75.8934457 -47.9246274 79.34408029 -47.90234375 82.796875 C-47.91172522 85.19013833 -47.92418075 87.58339143 -47.93959045 89.97662354 C-47.97188035 96.27657902 -47.9623502 102.5758082 -47.94421387 108.87579346 C-47.93307401 115.30399595 -47.96134193 121.73201062 -47.98632812 128.16015625 C-48.02953087 140.77355304 -48.02990814 153.38657559 -48 166 C-58.69576152 163.94462791 -70.00346563 161.17017611 -76.87966156 152.05757904 C-84.63502837 137.81431144 -80.40536239 114.44126947 -79.71661377 98.90533447 C-79.45939865 92.49166283 -79.34639133 86.07556099 -79.22070312 79.65820312 C-78.95372143 67.09920141 -78.53285606 54.55039212 -78 42 C-77.48091064 41.71278076 -76.96182129 41.42556152 -76.42700195 41.12963867 C-74.05499613 39.8165026 -71.68374289 38.50201321 -69.3125 37.1875 C-68.49587891 36.73568359 -67.67925781 36.28386719 -66.83789062 35.81835938 C-63.53614411 33.98702629 -60.25694278 32.15851027 -57.04296875 30.17578125 C-55 29 -55 29 -53 29 C-53 28.34 -53 27.68 -53 27 C-52.01644531 26.48953125 -51.03289063 25.9790625 -50.01953125 25.453125 C-41.65161595 21.08147484 -33.3806545 16.56660464 -25.1875 11.875 C-24.29732178 11.36590088 -23.40714355 10.85680176 -22.48999023 10.33227539 C-18.67179271 8.14015659 -14.86604078 5.93431062 -11.10546875 3.64453125 C-10.03941406 2.99871094 -8.97335938 2.35289063 -7.875 1.6875 C-6.54082031 0.85798828 -6.54082031 0.85798828 -5.1796875 0.01171875 C-3 -1 -3 -1 0 0 Z " fill="#FDFDFD" transform="translate(115,40)"/>
<path d="M0 0 C1.32 0.33 2.64 0.66 4 1 C4 1.66 4 2.32 4 3 C4.78375 3.20625 5.5675 3.4125 6.375 3.625 C11.305614 5.4952329 15.56926016 8.16335671 20 11 C20.72746241 11.37165598 21.45492481 11.74331196 22.20443153 12.12623024 C28.47461294 15.62973682 28.47461294 15.62973682 29.85613632 19.23289108 C30.20113038 21.97950399 30.26221199 24.60824398 30.22802734 27.37646484 C30.25022339 28.40812271 30.27241943 29.43978058 30.29528809 30.50270081 C30.35520014 33.90666959 30.34854598 37.30651783 30.3359375 40.7109375 C30.35216436 43.08217843 30.37047485 45.45340594 30.39077759 47.82461548 C30.42208498 52.79305633 30.41881052 57.76005566 30.39306641 62.72851562 C30.364196 69.08803578 30.43516176 75.44196469 30.53401756 81.80061913 C30.59665138 86.6977985 30.59890756 91.59363725 30.58385086 96.49113846 C30.58523529 98.83472343 30.60694913 101.17838972 30.64957809 103.52158737 C30.9325497 121.35984679 30.9325497 121.35984679 27.72077751 125.74761009 C24.26448638 128.88027215 20.36919311 130.42091712 16 132 C14.47607304 132.85185137 12.96595032 133.73037226 11.48828125 134.66015625 C10.09746827 135.46287094 8.70551583 136.2636142 7.3125 137.0625 C5.68488827 137.99998687 4.05728457 138.93748769 2.4296875 139.875 C1.5644043 140.37257812 0.69912109 140.87015625 -0.19238281 141.3828125 C-3.253559 143.14604998 -6.31060557 144.91631095 -9.3671875 146.6875 C-19.39905335 152.49666049 -29.43630539 158.29388392 -39.5625 163.9375 C-40.31217041 164.35652588 -41.06184082 164.77555176 -41.83422852 165.20727539 C-46.87606266 168 -46.87606266 168 -48 168 C-50.52237412 138.57068502 -50.52237412 138.57068502 -46.62304688 131.50488281 C-43.08137799 127.93379807 -38.79130742 126.1917555 -34.05957031 124.66943359 C-31.25405064 123.75753993 -28.73261833 122.4324178 -26.125 121.0625 C-25.19171875 120.61777344 -24.2584375 120.17304688 -23.296875 119.71484375 C-18.01425639 116.96713099 -13.00027783 113.78022836 -7.96533203 110.60571289 C-7.22138184 110.14028076 -6.47743164 109.67484863 -5.7109375 109.1953125 C-4.71006104 108.56133545 -4.71006104 108.56133545 -3.68896484 107.91455078 C-2 107 -2 107 0 107 C-0.0707373 105.86216064 -0.14147461 104.72432129 -0.21435547 103.55200195 C-1.19381777 86.16151054 -1.15376005 68.77541255 -1.13037109 51.36401367 C-1.12461554 47.01826249 -1.12800514 42.67257231 -1.13394356 38.32682323 C-1.13756756 34.93890426 -1.13640314 31.55099964 -1.13381577 28.16308022 C-1.13315464 26.5600617 -1.133946 24.95704182 -1.13629532 23.35402489 C-1.14529417 15.50907722 -1.10815518 7.78514777 0 0 Z " fill="#FEFEFD" transform="translate(193,66)"/>
<path d="M0 0 C6.6 0 13.2 0 20 0 C21 1 21 1 21.12025452 2.75270081 C21.1169236 3.89520546 21.1169236 3.89520546 21.11352539 5.06079102 C21.11344986 5.92160782 21.11337433 6.78242462 21.11329651 7.66932678 C21.10813522 8.60473801 21.10297394 9.54014923 21.09765625 10.50390625 C21.0962413 11.45692123 21.09482635 12.40993622 21.09336853 13.39183044 C21.08775152 16.44875165 21.07519616 19.50560077 21.0625 22.5625 C21.05748719 24.62955624 21.05292391 26.69661362 21.04882812 28.76367188 C21.03862558 33.84249833 21.01905356 38.92116806 21 44 C33.87 44 46.74 44 60 44 C60 29.48 60 14.96 60 0 C66.6 0 73.2 0 80 0 C81.54593569 1.54593569 81.12594233 2.98490074 81.12698364 5.13769531 C81.13121338 6.47544006 81.13121338 6.47544006 81.13552856 7.84020996 C81.13249222 9.31922791 81.13249222 9.31922791 81.12939453 10.828125 C81.13202301 12.37675232 81.13202301 12.37675232 81.13470459 13.95666504 C81.13912533 17.38779352 81.13618433 20.81887094 81.1328125 24.25 C81.13348548 26.62272146 81.13445545 28.99544284 81.13571167 31.36816406 C81.13718894 36.34831395 81.13503314 41.32844594 81.13037109 46.30859375 C81.1246738 52.70828679 81.12795264 59.1079379 81.13394356 65.50762939 C81.13754837 70.40934569 81.13641095 75.31105196 81.13381577 80.21276855 C81.13314628 82.57320155 81.13397568 84.93363544 81.13629532 87.29406738 C81.13882054 90.58669463 81.13498309 93.87925292 81.12939453 97.171875 C81.13141876 98.15788696 81.13344299 99.14389893 81.13552856 100.15979004 C81.13270874 101.05161987 81.12988892 101.94344971 81.12698364 102.86230469 C81.1264181 104.03149445 81.1264181 104.03149445 81.12584114 105.2243042 C81 107 81 107 80 108 C73.4 108 66.8 108 60 108 C60 93.15 60 78.3 60 63 C47.13 63 34.26 63 21 63 C21.01160156 66.16464844 21.02320313 69.32929688 21.03515625 72.58984375 C21.04294594 75.64119364 21.0490232 78.69254244 21.05493164 81.74389648 C21.05997298 83.87118014 21.06680591 85.99846031 21.07543945 88.12573242 C21.08751379 91.17627826 21.09323014 94.22677845 21.09765625 97.27734375 C21.10281754 98.23462875 21.10797882 99.19191376 21.11329651 100.1782074 C21.11340981 101.49946373 21.11340981 101.49946373 21.11352539 102.84741211 C21.115746 103.62684677 21.11796661 104.40628143 21.12025452 105.20933533 C21 107 21 107 20 108 C13.4 108 6.8 108 0 108 C0 72.36 0 36.72 0 0 Z " fill="#FCFBFB" transform="translate(262,83)"/>
<path d="M0 0 C0.82564453 -0.03738281 1.65128906 -0.07476562 2.50195312 -0.11328125 C8.86040403 -0.20347204 12.8582749 1.40642836 17.8125 5.375 C23.50979141 11.07229141 25.13845043 17.94185058 25.25498962 25.73336792 C25.25205399 26.62315338 25.24911835 27.51293884 25.24609375 28.4296875 C25.2513356 29.37127716 25.25657745 30.31286682 25.26197815 31.2829895 C25.26836944 33.26465881 25.26709909 35.2463662 25.25854492 37.22802734 C25.25004313 40.23474793 25.27882409 43.23956067 25.31054688 46.24609375 C25.31215955 48.1822911 25.31158008 50.11849178 25.30859375 52.0546875 C25.31982773 52.9404245 25.33106171 53.8261615 25.34263611 54.73873901 C25.26164811 62.11442839 23.54702064 68.98267221 18.84765625 74.8125 C18.19667969 75.328125 17.54570313 75.84375 16.875 76.375 C16.22660156 76.91125 15.57820312 77.4475 14.91015625 78 C9.21075489 81.73592045 4.1361608 81.68057148 -2.5 81.625 C-3.86801758 81.63660156 -3.86801758 81.63660156 -5.26367188 81.6484375 C-6.61235352 81.64457031 -6.61235352 81.64457031 -7.98828125 81.640625 C-8.79434814 81.63836914 -9.60041504 81.63611328 -10.4309082 81.63378906 C-14.07860114 81.29134335 -17.6331578 80.26358555 -21.1875 79.375 C-21.1875 89.935 -21.1875 100.495 -21.1875 111.375 C-32.1875 113.375 -32.1875 113.375 -42.1875 114.375 C-42.1875 77.085 -42.1875 39.795 -42.1875 1.375 C-36.5775 1.375 -30.9675 1.375 -25.1875 1.375 C-24.5275 3.025 -23.8675 4.675 -23.1875 6.375 C-22.42824219 6.02566406 -21.66898438 5.67632812 -20.88671875 5.31640625 C-19.89285156 4.86136719 -18.89898438 4.40632813 -17.875 3.9375 C-16.88886719 3.48503906 -15.90273438 3.03257813 -14.88671875 2.56640625 C-9.75166202 0.2998472 -5.52488597 0.09271357 0 0 Z M-21.1875 23.375 C-21.36289436 26.31596737 -21.41882375 29.16153349 -21.3828125 32.1015625 C-21.3799826 32.96437836 -21.37715271 33.82719421 -21.37423706 34.71615601 C-21.36302333 37.4775772 -21.33791684 40.2386765 -21.3125 43 C-21.30247173 44.86978699 -21.29334562 46.73957905 -21.28515625 48.609375 C-21.26308012 53.19804109 -21.22854234 57.78646593 -21.1875 62.375 C-16.30016837 63.83941406 -12.11530423 64.67076509 -7 64.6875 C-5.81019531 64.70425781 -4.62039063 64.72101563 -3.39453125 64.73828125 C0.04887538 64.34822423 1.40986434 63.82350937 3.8125 61.375 C5.04911642 57.66515074 4.9748061 54.21201708 4.98046875 50.34765625 C4.98379715 49.56233017 4.98712555 48.77700409 4.99055481 47.96788025 C4.99561463 46.30777573 4.99796343 44.64766105 4.99780273 42.98754883 C4.99998879 40.45051287 5.01815296 37.91391213 5.03710938 35.37695312 C5.04004359 33.76302232 5.0420282 32.14908945 5.04296875 30.53515625 C5.05015427 29.7777565 5.05733978 29.02035675 5.06474304 28.24000549 C5.04355662 22.99179537 5.04355662 22.99179537 2.8125 18.375 C-4.97519774 14.48115113 -15.32210525 17.50960525 -21.1875 23.375 Z " fill="#FCFCFC" transform="translate(850.1875,110.625)"/>
<path d="M0 0 C0.33 12.54 0.66 25.08 1 38 C9.415 35.525 9.415 35.525 18 33 C23.1328125 32.37109375 23.1328125 32.37109375 27.125 32.4375 C27.80046875 32.42654297 28.4759375 32.41558594 29.171875 32.40429688 C34.56298429 32.48235348 37.70562674 33.95460906 42 37 C43.5234375 39.1484375 43.5234375 39.1484375 44.375 41.375 C44.67148437 42.10460937 44.96796875 42.83421875 45.2734375 43.5859375 C46.73015426 48.4259964 47.12557723 53.137277 47.12939453 58.1730957 C47.13254669 59.37065994 47.13569885 60.56822418 47.13894653 61.80207825 C47.13591019 63.71956123 47.13591019 63.71956123 47.1328125 65.67578125 C47.1334867 67.0100252 47.1344577 68.34426904 47.13571167 69.67851257 C47.13718062 72.46317728 47.13505827 75.24780976 47.13037109 78.0324707 C47.12464645 81.60822488 47.12797504 85.18390445 47.13394356 88.75965595 C47.13841253 92.16920381 47.13529101 95.57873127 47.1328125 98.98828125 C47.13483673 100.2767244 47.13686096 101.56516754 47.13894653 102.89265442 C47.13421829 104.66535957 47.13421829 104.66535957 47.12939453 106.47387695 C47.12859894 107.51945267 47.12780334 108.56502838 47.12698364 109.64228821 C47 112 47 112 46 113 C44.59651265 113.09860131 43.18819523 113.13078937 41.78125 113.1328125 C40.50701172 113.13474609 40.50701172 113.13474609 39.20703125 113.13671875 C38.31371094 113.13285156 37.42039062 113.12898438 36.5 113.125 C35.60667969 113.12886719 34.71335937 113.13273437 33.79296875 113.13671875 C32.94347656 113.13542969 32.09398437 113.13414062 31.21875 113.1328125 C30.43435547 113.13168457 29.64996094 113.13055664 28.84179688 113.12939453 C27 113 27 113 26 112 C25.88201035 110.23140308 25.83265544 108.45818145 25.81054688 106.68579102 C25.79382935 105.55113907 25.77711182 104.41648712 25.7598877 103.24745178 C25.74631226 102.01208176 25.73273682 100.77671173 25.71875 99.50390625 C25.69113586 97.61538185 25.69113586 97.61538185 25.66296387 95.68870544 C25.60398986 91.64668539 25.55107983 87.60462533 25.5 83.5625 C25.43281822 78.25120622 25.35885111 72.9400609 25.28125 67.62890625 C25.26767456 66.39556046 25.25409912 65.16221466 25.2401123 63.89149475 C25.22339478 62.75369064 25.20667725 61.61588654 25.18945312 60.44360352 C25.17692505 59.43846207 25.16439697 58.43332062 25.15148926 57.39772034 C25.15557272 54.98620734 25.15557272 54.98620734 24 53 C15.72005883 52.44800392 8.44298975 54.27850513 1 58 C0.67 76.15 0.34 94.3 0 113 C-6.6 113 -13.2 113 -20 113 C-20.99851864 89.36873937 -20.98928602 65.82712118 -20.60510254 42.18133545 C-20.53274835 37.62747912 -20.46895298 33.07350223 -20.40429688 28.51953125 C-20.27759787 19.67955366 -20.14191853 10.83974634 -20 2 C-18.16824992 1.65807332 -16.33448463 1.32693786 -14.5 1 C-12.96859375 0.7215625 -12.96859375 0.7215625 -11.40625 0.4375 C-8 0 -8 0 0 0 Z " fill="#FDFCFC" transform="translate(514,78)"/>
<path d="M0 0 C-0.1440088 1.66682531 -0.29031844 3.33345185 -0.4375 5 C-0.55931641 6.3921875 -0.55931641 6.3921875 -0.68359375 7.8125 C-1.05481517 11.55221209 -1.52200777 15.27246396 -2 19 C-2.92897095 18.86368164 -2.92897095 18.86368164 -3.87670898 18.72460938 C-6.72939325 18.30982818 -9.58339203 17.90486388 -12.4375 17.5 C-13.89833008 17.28537109 -13.89833008 17.28537109 -15.38867188 17.06640625 C-23.74651568 15.89239475 -31.98829823 14.76450506 -40 18 C-43.90395194 21.14013526 -45.30334601 23.11771526 -46 28 C-46.09113988 29.62438663 -46.13773314 31.25173812 -46.14526367 32.87866211 C-46.15164352 33.8199144 -46.15802338 34.76116669 -46.16459656 35.73094177 C-46.16570938 36.73625443 -46.1668222 37.74156708 -46.16796875 38.77734375 C-46.17129715 39.82144913 -46.17462555 40.8655545 -46.17805481 41.94129944 C-46.1831097 44.1460018 -46.18546358 46.35071178 -46.18530273 48.55541992 C-46.18748983 51.92184071 -46.20566266 55.287934 -46.22460938 58.65429688 C-46.22754349 60.79947805 -46.22952817 62.94466078 -46.23046875 65.08984375 C-46.23765427 66.09313217 -46.24483978 67.09642059 -46.25224304 68.13011169 C-46.23233729 74.24039583 -46.1778514 79.48185932 -42 84.3125 C-38.77562069 87.03307004 -36.87410718 87.12796954 -32.72265625 87.1328125 C-31.11487305 87.13474609 -31.11487305 87.13474609 -29.47460938 87.13671875 C-28.34861328 87.13285156 -27.22261719 87.12898438 -26.0625 87.125 C-24.97130859 87.12886719 -23.88011719 87.13273437 -22.75585938 87.13671875 C-15.7832544 87.12842297 -8.93069419 86.76302815 -2 86 C-1.66191314 88.06172613 -1.32972639 90.1244203 -1 92.1875 C-0.814375 93.33605469 -0.62875 94.48460937 -0.4375 95.66796875 C-0.06510523 98.50415393 0.08596021 101.14719564 0 104 C-9.44079004 106.61724872 -18.53300514 107.32512582 -28.3125 107.375 C-29.40868652 107.38853516 -30.50487305 107.40207031 -31.63427734 107.41601562 C-42.55445089 107.35656814 -52.70593335 105.09825125 -60.7578125 97.296875 C-66.73222326 90.65864082 -68.11124 83.97313369 -68.14526367 75.13745117 C-68.15164352 74.00574997 -68.15802338 72.87404877 -68.16459656 71.70805359 C-68.16570938 70.49857559 -68.1668222 69.2890976 -68.16796875 68.04296875 C-68.17129715 66.78543289 -68.17462555 65.52789703 -68.17805481 64.23225403 C-68.18311055 61.57529147 -68.18589702 58.91843126 -68.18530273 56.26147461 C-68.18520132 52.87926026 -68.19884234 49.49725678 -68.21607494 46.11509228 C-68.22995803 42.86189265 -68.22928604 39.60869394 -68.23046875 36.35546875 C-68.23765427 35.15206345 -68.24483978 33.94865814 -68.25224304 32.70878601 C-68.22205737 21.51257076 -67.05712077 14.28308944 -59.9375 5.4375 C-44.15201438 -7.66109445 -18.60659316 -4.59692302 0 0 Z " fill="#FDFCFC" transform="translate(675,85)"/>
<path d="M0 0 C1.01578125 -0.01546875 2.0315625 -0.0309375 3.078125 -0.046875 C11.2896893 -0.00476441 17.84014156 1.91164363 24.8125 6.25 C33.90045296 15.59760876 34.37335105 26.21717834 34.37060547 38.59838867 C34.37497024 40.79750574 34.41134721 42.99459699 34.44921875 45.19335938 C34.54026418 56.47685939 33.0620503 66.3646971 25 74.84375 C15.0895476 83.05084339 1.12990108 82.62262141 -11 81.5 C-18.85592317 79.52018065 -26.28978015 75.82141663 -30.6875 68.75 C-31.08324219 68.13640625 -31.47898437 67.5228125 -31.88671875 66.890625 C-35.50417985 59.12260326 -35.34161835 51.1818721 -35.31567383 42.77392578 C-35.31251702 40.63652335 -35.33601945 38.50051307 -35.36132812 36.36328125 C-35.3994809 27.92182562 -34.84144712 20.18289424 -31 12.5 C-30.34 12.5 -29.68 12.5 -29 12.5 C-28.773125 11.9225 -28.54625 11.345 -28.3125 10.75 C-22.63956384 1.02496659 -10.10514739 -0.15388549 0 0 Z M-13 21.5 C-14.48131672 24.46263344 -14.18327691 27.48857928 -14.203125 30.73828125 C-14.20882507 31.45606247 -14.21452515 32.17384369 -14.22039795 32.91337585 C-14.22984952 34.43401617 -14.23638256 35.95467699 -14.24023438 37.4753418 C-14.24991925 39.79317389 -14.2809308 42.11011125 -14.3125 44.42773438 C-14.31903237 45.90624474 -14.32428192 47.38476145 -14.328125 48.86328125 C-14.3404718 49.55303543 -14.3528186 50.24278961 -14.36553955 50.95344543 C-14.3454933 55.32093882 -13.65055984 58.01718111 -11 61.5 C-5.75220982 65.54424976 -0.35817054 65.26573366 6 64.5 C9.93735479 62.73497889 11.48013883 61.75465523 13.12963867 57.77368164 C14.68798616 51.9122843 14.32733025 45.96747959 14.3125 39.9375 C14.32861328 38.62330078 14.34472656 37.30910156 14.36132812 35.95507812 C14.36197266 34.68986328 14.36261719 33.42464844 14.36328125 32.12109375 C14.36626221 30.9705249 14.36924316 29.81995605 14.37231445 28.63452148 C13.86328735 24.34901394 12.23545245 21.7546706 9.2421875 18.71484375 C2.49404537 15.0586204 -7.5378437 16.19390531 -13 21.5 Z " fill="#FDFCFC" transform="translate(715,110.5)"/>
<path d="M0 0 C1.24523437 -0.01998047 2.49046875 -0.03996094 3.7734375 -0.06054688 C11.75918036 -0.05633499 19.54389931 0.51319361 25.98266602 5.7434082 C33.18066628 13.5598524 32.78512507 22.83237362 32.66796875 32.78125 C32.66236365 34.15986669 32.65809788 35.53848942 32.65510559 36.91711426 C32.64372857 40.52080189 32.61432457 44.12411862 32.58099365 47.72766113 C32.55013727 51.41474391 32.53656722 55.10188744 32.52148438 58.7890625 C32.48944662 66.00537622 32.43833872 73.22138586 32.375 80.4375 C29.91637599 80.49133848 27.4589245 80.53109038 25 80.5625 C24.30132812 80.57925781 23.60265625 80.59601563 22.8828125 80.61328125 C21.04602514 80.63094267 19.20898037 80.54053261 17.375 80.4375 C16.385 79.4475 16.385 79.4475 15.375 78.4375 C15.375 77.4475 15.375 76.4575 15.375 75.4375 C14.54355469 75.78683594 13.71210938 76.13617188 12.85546875 76.49609375 C11.76878906 76.95113281 10.68210937 77.40617187 9.5625 77.875 C8.48355469 78.32746094 7.40460938 78.77992188 6.29296875 79.24609375 C1.63587214 81.14758567 -1.90163442 81.62772711 -6.9375 81.6875 C-8.23300781 81.71328125 -9.52851563 81.7390625 -10.86328125 81.765625 C-15.86608673 81.32924321 -19.03652372 79.91570682 -22.70703125 76.5 C-23.27808594 75.819375 -23.84914063 75.13875 -24.4375 74.4375 C-25.02144531 73.756875 -25.60539062 73.07625 -26.20703125 72.375 C-29.38888638 68.02734119 -28.84392683 63.27149446 -28.875 58.125 C-28.895625 57.28259766 -28.91625 56.44019531 -28.9375 55.57226562 C-28.96961185 50.43838309 -28.54691056 46.84717236 -25.625 42.4375 C-23.90625 40.79296875 -23.90625 40.79296875 -22.125 39.625 C-21.5371875 39.22667969 -20.949375 38.82835937 -20.34375 38.41796875 C-16.66173667 36.31754751 -13.36003414 36.25263683 -9.20703125 36.12109375 C-7.32661133 36.05825195 -7.32661133 36.05825195 -5.40820312 35.99414062 C-4.09787109 35.95482422 -2.78753906 35.91550781 -1.4375 35.875 C-0.10220022 35.83179008 1.23308652 35.788175 2.56835938 35.74414062 C5.83713297 35.63793498 9.10598333 35.53589003 12.375 35.4375 C12.32706299 34.39247314 12.27912598 33.34744629 12.22973633 32.27075195 C12.11539714 29.77815755 12.00105794 27.28556315 11.88671875 24.79296875 C11.63732324 21.52729803 11.63732324 21.52729803 10.08203125 19.55078125 C1.34844856 13.85496646 -13.99873758 17.79898725 -23.625 19.4375 C-24.13088147 17.52237728 -24.62948391 15.60533078 -25.125 13.6875 C-25.4034375 12.62015625 -25.681875 11.5528125 -25.96875 10.453125 C-26.625 7.4375 -26.625 7.4375 -26.625 3.4375 C-17.65917151 0.71539732 -9.34331147 -0.05352939 0 0 Z M-8.625 52.4375 C-9.10374797 55.03048262 -9.10374797 55.03048262 -9 57.9375 C-9.00773437 58.9171875 -9.01546875 59.896875 -9.0234375 60.90625 C-8.82621094 62.15921875 -8.82621094 62.15921875 -8.625 63.4375 C-4.35349417 66.28517055 -0.64086739 65.94721259 4.375 65.4375 C7.20712985 64.65104982 9.6774173 63.63642564 12.375 62.4375 C12.375 58.4775 12.375 54.5175 12.375 50.4375 C9.43725537 50.38359643 6.50049768 50.3438745 3.5625 50.3125 C2.72912109 50.29574219 1.89574219 50.27898437 1.03710938 50.26171875 C-0.16655273 50.25205078 -0.16655273 50.25205078 -1.39453125 50.2421875 C-2.13292236 50.23171387 -2.87131348 50.22124023 -3.63208008 50.21044922 C-5.94390676 50.32008521 -5.94390676 50.32008521 -8.625 52.4375 Z " fill="#FDFCFC" transform="translate(383.625,110.5625)"/>
<path d="M0 0 C1.25296875 -0.00257812 2.5059375 -0.00515625 3.796875 -0.0078125 C5.09367187 -0.00007813 6.39046875 0.00765625 7.7265625 0.015625 C9.015625 0.00789063 10.3046875 0.00015625 11.6328125 -0.0078125 C18.21626456 0.00570588 24.06434552 0.26008237 30.3515625 2.265625 C30.20920793 3.99508153 30.06251868 5.72418154 29.9140625 7.453125 C29.83285156 8.41605469 29.75164062 9.37898438 29.66796875 10.37109375 C29.37490099 13.05212102 28.92452496 15.6319236 28.3515625 18.265625 C27.58714844 18.1934375 26.82273437 18.12125 26.03515625 18.046875 C11.91759622 16.10155674 11.91759622 16.10155674 -1.6484375 18.265625 C-2.42655468 22.08547296 -2.89230306 24.53402831 -1.6484375 28.265625 C0.84448633 29.22259576 3.22580766 29.99423792 5.7890625 30.703125 C7.25342308 31.13525541 8.71696996 31.57015283 10.1796875 32.0078125 C11.25186523 32.32637207 11.25186523 32.32637207 12.34570312 32.65136719 C26.83255244 37.0877003 26.83255244 37.0877003 30.45556641 43.09667969 C32.09967536 47.07658811 31.72068323 51.26491621 31.7265625 55.515625 C31.75105469 56.43214844 31.77554688 57.34867188 31.80078125 58.29296875 C31.83238159 65.67691503 30.32431154 71.2102996 25.1015625 76.578125 C18.08964045 80.88089535 11.92233496 81.7880656 3.8515625 81.703125 C2.89556152 81.69990234 1.93956055 81.69667969 0.95458984 81.69335938 C-7.65628713 81.52652094 -15.47844329 79.88751426 -23.6484375 77.265625 C-23.79978188 71.21184993 -23.35688792 67.68252584 -20.6484375 62.265625 C-19.3490625 62.41 -18.0496875 62.554375 -16.7109375 62.703125 C-15.47537109 62.83847656 -15.47537109 62.83847656 -14.21484375 62.9765625 C-12.59644822 63.15884754 -10.97903443 63.35030163 -9.36328125 63.5546875 C0.58220043 64.87077415 0.58220043 64.87077415 10.3515625 63.265625 C11.89743126 60.17388748 11.64515771 57.67132948 11.3515625 54.265625 C8.02406643 49.42731595 2.85017497 48.67687676 -2.5234375 47.265625 C-16.13031657 43.66089139 -16.13031657 43.66089139 -20.9921875 37.10546875 C-23.21687134 32.77495089 -23.23966654 28.61384856 -23.1484375 23.828125 C-23.16390625 23.02052734 -23.179375 22.21292969 -23.1953125 21.38085938 C-23.15808084 15.60529768 -21.96086603 11.0552176 -18.6484375 6.265625 C-12.96136572 1.56760918 -7.28845049 0.01451676 0 0 Z " fill="#FDFCFC" transform="translate(450.6484375,110.734375)"/>
<path d="M0 0 C0.34144359 1.68587771 0.67271803 3.37381593 1 5.0625 C1.185625 6.00222656 1.37125 6.94195312 1.5625 7.91015625 C2.04362537 11.30810415 2.06846277 14.57258236 2 18 C1.13117187 18.45890625 0.26234375 18.9178125 -0.6328125 19.390625 C-2.36144531 20.31101563 -2.36144531 20.31101563 -4.125 21.25 C-5.83042969 22.15492188 -5.83042969 22.15492188 -7.5703125 23.078125 C-11.03718966 24.9580044 -11.03718966 24.9580044 -14.3046875 27.234375 C-17 29 -17 29 -19 29 C-19 45.83 -19 62.66 -19 80 C-25.27 80 -31.54 80 -38 80 C-39.69668207 78.30331793 -39.11968993 76.18867982 -39.12442017 73.92559814 C-39.12082489 73.19983582 -39.11722961 72.47407349 -39.11352539 71.72631836 C-39.11367142 70.96539383 -39.11381744 70.2044693 -39.1139679 69.42048645 C-39.11326862 66.89357702 -39.10547555 64.36674038 -39.09765625 61.83984375 C-39.09579212 60.0924941 -39.0943682 58.34514393 -39.09336853 56.59779358 C-39.08954293 51.98968066 -39.07971229 47.38159905 -39.06866455 42.77349854 C-39.05845134 38.07491479 -39.0538711 33.37632601 -39.04882812 28.67773438 C-39.03809005 19.45180692 -39.02049292 10.22591096 -39 1 C-33.39 1 -27.78 1 -22 1 C-21.34 3.31 -20.68 5.62 -20 8 C-18.33710937 7.13375 -18.33710937 7.13375 -16.640625 6.25 C-15.17730017 5.49957701 -13.71374645 4.74960026 -12.25 4 C-11.52039063 3.6184375 -10.79078125 3.236875 -10.0390625 2.84375 C-8.97558594 2.30234375 -8.97558594 2.30234375 -7.890625 1.75 C-6.91657715 1.24726562 -6.91657715 1.24726562 -5.92285156 0.734375 C-4 0 -4 0 0 0 Z " fill="#FCFCFC" transform="translate(799,111)"/>
<path d="M0 0 C6.6 0 13.2 0 20 0 C20 26.07 20 52.14 20 79 C13.4 79 6.8 79 0 79 C0 52.93 0 26.86 0 0 Z " fill="#FEFDFD" transform="translate(574,112)"/>
<path d="M0 0 C6.6 0 13.2 0 20 0 C20 7.92 20 15.84 20 24 C13.4 24 6.8 24 0 24 C0 16.08 0 8.16 0 0 Z " fill="#FCFCFC" transform="translate(574,78)"/>
</svg>
